<svg width="24" height="24" viewBox="0 0 24 24" fill="none" xmlns="http://www.w3.org/2000/svg">
<path fill-rule="evenodd" clip-rule="evenodd" d="M15.707 11.2929C15.8944 11.4805 15.9998 11.7348 15.9998 11.9999C15.9998 12.2651 15.8944 12.5194 15.707 12.7069L10.05 18.3639C9.86137 18.5461 9.60876 18.6469 9.34657 18.6446C9.08437 18.6423 8.83356 18.5372 8.64815 18.3518C8.46274 18.1663 8.35757 17.9155 8.35529 17.6533C8.35302 17.3911 8.45381 17.1385 8.63597 16.9499L13.586 11.9999L8.63597 7.04994C8.45381 6.86133 8.35302 6.60873 8.3553 6.34653C8.35757 6.08434 8.46274 5.83353 8.64815 5.64812C8.83356 5.46271 9.08437 5.35754 9.34657 5.35526C9.60876 5.35298 9.86137 5.45378 10.05 5.63594L15.707 11.2929Z" fill="white"/>
</svg>
