<svg width="20" height="20" viewBox="0 0 20 20" fill="none" xmlns="http://www.w3.org/2000/svg">
<path fill-rule="evenodd" clip-rule="evenodd" d="M13.0891 9.41086C13.2454 9.56713 13.3331 9.77906 13.3331 10C13.3331 10.221 13.2454 10.4329 13.0891 10.5892L8.37498 15.3034C8.21781 15.4552 8.0073 15.5392 7.78881 15.5373C7.57031 15.5354 7.3613 15.4477 7.20679 15.2932C7.05229 15.1387 6.96465 14.9297 6.96275 14.7112C6.96085 14.4927 7.04484 14.2822 7.19664 14.125L11.3216 10L7.19664 5.87503C7.04484 5.71786 6.96085 5.50736 6.96275 5.28886C6.96464 5.07036 7.05229 4.86135 7.20679 4.70685C7.3613 4.55234 7.57031 4.4647 7.78881 4.4628C8.0073 4.4609 8.21781 4.5449 8.37497 4.6967L13.0891 9.41086Z" fill="white"/>
</svg>
