<svg width="20" height="20" viewBox="0 0 20 20" fill="none" xmlns="http://www.w3.org/2000/svg">
<g clip-path="url(#clip0_1_551)">
<path fill-rule="evenodd" clip-rule="evenodd" d="M6.91083 10.5891C6.7546 10.4329 6.66684 10.2209 6.66684 9.99997C6.66684 9.779 6.7546 9.56708 6.91083 9.41081L11.625 4.69664C11.7822 4.54484 11.9927 4.46085 12.2112 4.46275C12.4297 4.46464 12.6387 4.55229 12.7932 4.70679C12.9477 4.8613 13.0353 5.07031 13.0372 5.28881C13.0391 5.5073 12.9551 5.71781 12.8033 5.87497L8.67833 9.99997L12.8033 14.125C12.9551 14.2821 13.0391 14.4926 13.0372 14.7111C13.0353 14.9296 12.9477 15.1386 12.7932 15.2932C12.6387 15.4477 12.4297 15.5353 12.2112 15.5372C11.9927 15.5391 11.7822 15.4551 11.625 15.3033L6.91083 10.5891Z" fill="white"/>
</g>
<defs>
<clipPath id="clip0_1_551">
<rect width="20" height="20" fill="white" transform="translate(0 20) rotate(-90)"/>
</clipPath>
</defs>
</svg>
