<svg width="42" height="24" viewBox="0 0 42 24" fill="none" xmlns="http://www.w3.org/2000/svg">
<path d="M2.646 8.058V10.914H6.006V12.216H2.646V15.198H6.426V16.5H1.05V6.756H6.426V8.058H2.646ZM16.3858 16.5H14.7898L9.9878 9.234V16.5H8.3918V6.756H9.9878L14.7898 14.008V6.756H16.3858V16.5Z" fill="#020202"/>
<g clip-path="url(#clip0_1_483)">
<path fill-rule="evenodd" clip-rule="evenodd" d="M30.707 15.707C30.5194 15.8945 30.2651 15.9998 30 15.9998C29.7348 15.9998 29.4805 15.8945 29.293 15.707L23.636 10.05C23.5405 9.95775 23.4643 9.84741 23.4119 9.7254C23.3595 9.6034 23.3319 9.47218 23.3307 9.3394C23.3296 9.20662 23.3549 9.07494 23.4052 8.95205C23.4554 8.82915 23.5297 8.7175 23.6236 8.6236C23.7175 8.52971 23.8291 8.45546 23.952 8.40518C24.0749 8.3549 24.2066 8.3296 24.3394 8.33075C24.4722 8.3319 24.6034 8.35949 24.7254 8.4119C24.8474 8.46431 24.9577 8.54049 25.05 8.636L30 13.586L34.95 8.636C35.1386 8.45384 35.3912 8.35305 35.6534 8.35533C35.9156 8.3576 36.1664 8.46277 36.3518 8.64818C36.5372 8.83359 36.6424 9.0844 36.6447 9.3466C36.6469 9.6088 36.5461 9.8614 36.364 10.05L30.707 15.707Z" fill="#020202"/>
</g>
<defs>
<clipPath id="clip0_1_483">
<rect width="24" height="24" fill="white" transform="translate(18)"/>
</clipPath>
</defs>
</svg>
