<svg width="24" height="24" viewBox="0 0 24 24" fill="none" xmlns="http://www.w3.org/2000/svg">
<path fill-rule="evenodd" clip-rule="evenodd" d="M8.29303 12.7071C8.10556 12.5195 8.00024 12.2652 8.00024 12.0001C8.00024 11.7349 8.10556 11.4806 8.29303 11.2931L13.95 5.63606C14.1386 5.45391 14.3912 5.35311 14.6534 5.35539C14.9156 5.35767 15.1664 5.46284 15.3518 5.64825C15.5373 5.83365 15.6424 6.08447 15.6447 6.34666C15.647 6.60886 15.5462 6.86146 15.364 7.05006L10.414 12.0001L15.364 16.9501C15.5462 17.1387 15.647 17.3913 15.6447 17.6535C15.6424 17.9157 15.5373 18.1665 15.3518 18.3519C15.1664 18.5373 14.9156 18.6425 14.6534 18.6447C14.3912 18.647 14.1386 18.5462 13.95 18.3641L8.29303 12.7071Z" fill="#020202"/>
</svg>
