<svg width="48" height="24" viewBox="0 0 48 24" fill="none" xmlns="http://www.w3.org/2000/svg">
<path d="M16 7H15.25C15.25 8.79493 13.7949 10.25 12 10.25V11V11.75C14.6234 11.75 16.75 9.62335 16.75 7H16ZM12 11V10.25C10.2051 10.25 8.75 8.79493 8.75 7H8H7.25C7.25 9.62335 9.37665 11.75 12 11.75V11ZM8 7H8.75C8.75 5.20507 10.2051 3.75 12 3.75V3V2.25C9.37665 2.25 7.25 4.37665 7.25 7H8ZM12 3V3.75C13.7949 3.75 15.25 5.20507 15.25 7H16H16.75C16.75 4.37665 14.6234 2.25 12 2.25V3ZM19 17.5H18.25C18.25 18.0294 17.8014 18.7105 16.6143 19.3041C15.4722 19.8751 13.8418 20.25 12 20.25V21V21.75C14.0242 21.75 15.8938 21.3414 17.2852 20.6457C18.6316 19.9725 19.75 18.9036 19.75 17.5H19ZM12 21V20.25C10.1582 20.25 8.52782 19.8751 7.38566 19.3041C6.19864 18.7105 5.75 18.0294 5.75 17.5H5H4.25C4.25 18.9036 5.36836 19.9725 6.71484 20.6457C8.10618 21.3414 9.97582 21.75 12 21.75V21ZM5 17.5H5.75C5.75 16.9706 6.19864 16.2895 7.38566 15.6959C8.52782 15.1249 10.1582 14.75 12 14.75V14V13.25C9.97582 13.25 8.10618 13.6586 6.71484 14.3543C5.36836 15.0275 4.25 16.0964 4.25 17.5H5ZM12 14V14.75C13.8418 14.75 15.4722 15.1249 16.6143 15.6959C17.8014 16.2895 18.25 16.9706 18.25 17.5H19H19.75C19.75 16.0964 18.6316 15.0275 17.2852 14.3543C15.8938 13.6586 14.0242 13.25 12 13.25V14Z" fill="#020202"/>
<g clip-path="url(#clip0_1_489)">
<path fill-rule="evenodd" clip-rule="evenodd" d="M36.707 15.707C36.5194 15.8945 36.2651 15.9998 36 15.9998C35.7348 15.9998 35.4805 15.8945 35.293 15.707L29.636 10.05C29.5405 9.95775 29.4643 9.84741 29.4119 9.7254C29.3595 9.6034 29.3319 9.47218 29.3307 9.3394C29.3296 9.20662 29.3549 9.07494 29.4052 8.95205C29.4554 8.82915 29.5297 8.7175 29.6236 8.6236C29.7175 8.52971 29.8291 8.45546 29.952 8.40518C30.0749 8.3549 30.2066 8.3296 30.3394 8.33075C30.4722 8.3319 30.6034 8.35949 30.7254 8.4119C30.8474 8.46431 30.9577 8.54049 31.05 8.636L36 13.586L40.95 8.636C41.1386 8.45384 41.3912 8.35305 41.6534 8.35533C41.9156 8.3576 42.1664 8.46277 42.3518 8.64818C42.5372 8.83359 42.6424 9.0844 42.6447 9.3466C42.6469 9.6088 42.5461 9.8614 42.364 10.05L36.707 15.707Z" fill="#020202"/>
</g>
<defs>
<clipPath id="clip0_1_489">
<rect width="24" height="24" fill="white" transform="translate(24)"/>
</clipPath>
</defs>
</svg>
