<svg width="622" height="68" viewBox="0 0 622 68" fill="none" xmlns="http://www.w3.org/2000/svg">
<mask id="path-1-outside-1_1_526" maskUnits="userSpaceOnUse" x="0" y="0" width="622" height="68" fill="black">
<rect fill="white" width="622" height="68"/>
<path d="M44.1663 27.92C44.1663 31.1733 43.4196 34.16 41.9263 36.88C40.4329 39.5467 38.1396 41.7067 35.0463 43.36C31.9529 45.0133 28.1129 45.84 23.5263 45.84H15.0463V66H1.36625V9.84H23.5263C28.0063 9.84 31.7929 10.6133 34.8863 12.16C37.9796 13.7067 40.2996 15.84 41.8463 18.56C43.3929 21.28 44.1663 24.4 44.1663 27.92ZM22.4863 34.96C25.0996 34.96 27.0463 34.3467 28.3263 33.12C29.6063 31.8933 30.2463 30.16 30.2463 27.92C30.2463 25.68 29.6063 23.9467 28.3263 22.72C27.0463 21.4933 25.0996 20.88 22.4863 20.88H15.0463V34.96H22.4863ZM64.9681 28.8C66.5681 26.3467 68.5681 24.4267 70.9681 23.04C73.3681 21.6 76.0348 20.88 78.9681 20.88V35.36H75.2081C71.7948 35.36 69.2348 36.1067 67.5281 37.6C65.8215 39.04 64.9681 41.6 64.9681 45.28V66H51.2881V21.36H64.9681V28.8ZM105.827 66.64C101.454 66.64 97.5069 65.7067 93.9869 63.84C90.5202 61.9733 87.7735 59.3067 85.7469 55.84C83.7735 52.3733 82.7869 48.32 82.7869 43.68C82.7869 39.0933 83.8002 35.0667 85.8269 31.6C87.8535 28.08 90.6269 25.3867 94.1469 23.52C97.6669 21.6533 101.614 20.72 105.987 20.72C110.36 20.72 114.307 21.6533 117.827 23.52C121.347 25.3867 124.12 28.08 126.147 31.6C128.174 35.0667 129.187 39.0933 129.187 43.68C129.187 48.2667 128.147 52.32 126.067 55.84C124.04 59.3067 121.24 61.9733 117.667 63.84C114.147 65.7067 110.2 66.64 105.827 66.64ZM105.827 54.8C108.44 54.8 110.654 53.84 112.467 51.92C114.334 50 115.267 47.2533 115.267 43.68C115.267 40.1067 114.36 37.36 112.547 35.44C110.787 33.52 108.6 32.56 105.987 32.56C103.32 32.56 101.107 33.52 99.3469 35.44C97.5869 37.3067 96.7069 40.0533 96.7069 43.68C96.7069 47.2533 97.5602 50 99.2669 51.92C101.027 53.84 103.214 54.8 105.827 54.8ZM133.724 43.6C133.724 39.0133 134.578 34.9867 136.284 31.52C138.044 28.0533 140.418 25.3867 143.404 23.52C146.391 21.6533 149.724 20.72 153.404 20.72C156.338 20.72 159.004 21.3333 161.404 22.56C163.858 23.7867 165.778 25.44 167.164 27.52V6.8H180.844V66H167.164V59.6C165.884 61.7333 164.044 63.44 161.644 64.72C159.298 66 156.551 66.64 153.404 66.64C149.724 66.64 146.391 65.7067 143.404 63.84C140.418 61.92 138.044 59.2267 136.284 55.76C134.578 52.24 133.724 48.1867 133.724 43.6ZM167.164 43.68C167.164 40.2667 166.204 37.5733 164.284 35.6C162.418 33.6267 160.124 32.64 157.404 32.64C154.684 32.64 152.364 33.6267 150.444 35.6C148.578 37.52 147.644 40.1867 147.644 43.6C147.644 47.0133 148.578 49.7333 150.444 51.76C152.364 53.7333 154.684 54.72 157.404 54.72C160.124 54.72 162.418 53.7333 164.284 51.76C166.204 49.7867 167.164 47.0933 167.164 43.68ZM234.821 21.36V66H221.141V59.92C219.755 61.8933 217.861 63.4933 215.461 64.72C213.115 65.8933 210.501 66.48 207.621 66.48C204.208 66.48 201.195 65.7333 198.581 64.24C195.968 62.6933 193.941 60.48 192.501 57.6C191.061 54.72 190.341 51.3333 190.341 47.44V21.36H203.941V45.6C203.941 48.5867 204.715 50.9067 206.261 52.56C207.808 54.2133 209.888 55.04 212.501 55.04C215.168 55.04 217.275 54.2133 218.821 52.56C220.368 50.9067 221.141 48.5867 221.141 45.6V21.36H234.821ZM241.928 43.68C241.928 39.04 242.861 34.9867 244.728 31.52C246.648 28.0533 249.288 25.3867 252.648 23.52C256.061 21.6533 259.954 20.72 264.328 20.72C269.928 20.72 274.594 22.1867 278.328 25.12C282.114 28.0533 284.594 32.1867 285.768 37.52H271.208C269.981 34.1067 267.608 32.4 264.088 32.4C261.581 32.4 259.581 33.3867 258.088 35.36C256.594 37.28 255.848 40.0533 255.848 43.68C255.848 47.3067 256.594 50.1067 258.088 52.08C259.581 54 261.581 54.96 264.088 54.96C267.608 54.96 269.981 53.2533 271.208 49.84H285.768C284.594 55.0667 282.114 59.1733 278.328 62.16C274.541 65.1467 269.874 66.64 264.328 66.64C259.954 66.64 256.061 65.7067 252.648 63.84C249.288 61.9733 246.648 59.3067 244.728 55.84C242.861 52.3733 241.928 48.32 241.928 43.68ZM317.965 54.4V66H311.005C306.045 66 302.178 64.8 299.405 62.4C296.632 59.9467 295.245 55.9733 295.245 50.48V32.72H289.805V21.36H295.245V10.48H308.925V21.36H317.885V32.72H308.925V50.64C308.925 51.9733 309.245 52.9333 309.885 53.52C310.525 54.1067 311.592 54.4 313.085 54.4H317.965ZM363.578 9.84C369.498 9.84 374.671 11.0133 379.098 13.36C383.525 15.7067 386.938 19.0133 389.338 23.28C391.791 27.4933 393.018 32.3733 393.018 37.92C393.018 43.4133 391.791 48.2933 389.338 52.56C386.938 56.8267 383.498 60.1333 379.018 62.48C374.591 64.8267 369.445 66 363.578 66H342.538V9.84H363.578ZM362.698 54.16C367.871 54.16 371.898 52.7467 374.778 49.92C377.658 47.0933 379.098 43.0933 379.098 37.92C379.098 32.7467 377.658 28.72 374.778 25.84C371.898 22.96 367.871 21.52 362.698 21.52H356.218V54.16H362.698ZM442.743 42.96C442.743 44.24 442.663 45.5733 442.503 46.96H411.543C411.756 49.7333 412.636 51.8667 414.183 53.36C415.783 54.8 417.73 55.52 420.023 55.52C423.436 55.52 425.81 54.08 427.143 51.2H441.703C440.956 54.1333 439.596 56.7733 437.623 59.12C435.703 61.4667 433.276 63.3067 430.343 64.64C427.41 65.9733 424.13 66.64 420.503 66.64C416.13 66.64 412.236 65.7067 408.823 63.84C405.41 61.9733 402.743 59.3067 400.823 55.84C398.903 52.3733 397.943 48.32 397.943 43.68C397.943 39.04 398.876 34.9867 400.743 31.52C402.663 28.0533 405.33 25.3867 408.743 23.52C412.156 21.6533 416.076 20.72 420.503 20.72C424.823 20.72 428.663 21.6267 432.023 23.44C435.383 25.2533 437.996 27.84 439.863 31.2C441.783 34.56 442.743 38.48 442.743 42.96ZM428.743 39.36C428.743 37.0133 427.943 35.1467 426.343 33.76C424.743 32.3733 422.743 31.68 420.343 31.68C418.05 31.68 416.103 32.3467 414.503 33.68C412.956 35.0133 411.996 36.9067 411.623 39.36H428.743ZM474.84 54.4V66H467.88C462.92 66 459.053 64.8 456.28 62.4C453.507 59.9467 452.12 55.9733 452.12 50.48V32.72H446.68V21.36H452.12V10.48H465.8V21.36H474.76V32.72H465.8V50.64C465.8 51.9733 466.12 52.9333 466.76 53.52C467.4 54.1067 468.467 54.4 469.96 54.4H474.84ZM479.74 43.6C479.74 39.0133 480.593 34.9867 482.3 31.52C484.06 28.0533 486.433 25.3867 489.42 23.52C492.407 21.6533 495.74 20.72 499.42 20.72C502.567 20.72 505.313 21.36 507.66 22.64C510.06 23.92 511.9 25.6 513.18 27.68V21.36H526.86V66H513.18V59.68C511.847 61.76 509.98 63.44 507.58 64.72C505.233 66 502.487 66.64 499.34 66.64C495.713 66.64 492.407 65.7067 489.42 63.84C486.433 61.92 484.06 59.2267 482.3 55.76C480.593 52.24 479.74 48.1867 479.74 43.6ZM513.18 43.68C513.18 40.2667 512.22 37.5733 510.3 35.6C508.433 33.6267 506.14 32.64 503.42 32.64C500.7 32.64 498.38 33.6267 496.46 35.6C494.593 37.52 493.66 40.1867 493.66 43.6C493.66 47.0133 494.593 49.7333 496.46 51.76C498.38 53.7333 500.7 54.72 503.42 54.72C506.14 54.72 508.433 53.7333 510.3 51.76C512.22 49.7867 513.18 47.0933 513.18 43.68ZM543.637 16.72C541.237 16.72 539.264 16.0267 537.717 14.64C536.224 13.2 535.477 11.44 535.477 9.36C535.477 7.22667 536.224 5.46666 537.717 4.08C539.264 2.64 541.237 1.92 543.637 1.92C545.984 1.92 547.904 2.64 549.397 4.08C550.944 5.46666 551.717 7.22667 551.717 9.36C551.717 11.44 550.944 13.2 549.397 14.64C547.904 16.0267 545.984 16.72 543.637 16.72ZM550.437 21.36V66H536.757V21.36H550.437ZM574.031 6.8V66H560.351V6.8H574.031ZM602.104 66.64C598.211 66.64 594.744 65.9733 591.704 64.64C588.664 63.3067 586.264 61.4933 584.504 59.2C582.744 56.8533 581.758 54.24 581.544 51.36H595.064C595.224 52.9067 595.944 54.16 597.224 55.12C598.504 56.08 600.078 56.56 601.944 56.56C603.651 56.56 604.958 56.24 605.864 55.6C606.824 54.9067 607.304 54.0267 607.304 52.96C607.304 51.68 606.638 50.7467 605.304 50.16C603.971 49.52 601.811 48.8267 598.824 48.08C595.624 47.3333 592.958 46.56 590.824 45.76C588.691 44.9067 586.851 43.6 585.304 41.84C583.758 40.0267 582.984 37.6 582.984 34.56C582.984 32 583.678 29.68 585.064 27.6C586.504 25.4667 588.584 23.7867 591.304 22.56C594.078 21.3333 597.358 20.72 601.144 20.72C606.744 20.72 611.144 22.1067 614.344 24.88C617.598 27.6533 619.464 31.3333 619.944 35.92H607.304C607.091 34.3733 606.398 33.1467 605.224 32.24C604.104 31.3333 602.611 30.88 600.744 30.88C599.144 30.88 597.918 31.2 597.064 31.84C596.211 32.4267 595.784 33.2533 595.784 34.32C595.784 35.6 596.451 36.56 597.784 37.2C599.171 37.84 601.304 38.48 604.184 39.12C607.491 39.9733 610.184 40.8267 612.264 41.68C614.344 42.48 616.158 43.8133 617.704 45.68C619.304 47.4933 620.131 49.9467 620.184 53.04C620.184 55.6533 619.438 58 617.944 60.08C616.504 62.1067 614.398 63.7067 611.624 64.88C608.904 66.0533 605.731 66.64 602.104 66.64Z"/>
</mask>
<path d="M41.9263 36.88L42.7988 37.3686L42.8028 37.3613L41.9263 36.88ZM35.0462 43.36L34.5749 42.4781L35.0462 43.36ZM15.0463 45.84V44.84H14.0463V45.84H15.0463ZM15.0463 66V67H16.0463V66H15.0463ZM1.36625 66H0.36625V67H1.36625V66ZM1.36625 9.84V8.84H0.36625V9.84H1.36625ZM34.8863 12.16L35.3335 11.2656V11.2656L34.8863 12.16ZM15.0463 20.88V19.88H14.0463V20.88H15.0463ZM15.0463 34.96H14.0463V35.96H15.0463V34.96ZM44.1663 27.92H43.1663C43.1663 31.0135 42.4581 33.8335 41.0497 36.3987L41.9263 36.88L42.8028 37.3613C44.3811 34.4865 45.1663 31.3331 45.1663 27.92H44.1663ZM41.9263 36.88L41.0537 36.3914C39.667 38.8678 37.5251 40.9012 34.5749 42.4781L35.0462 43.36L35.5176 44.2419C38.754 42.5121 41.1989 40.2256 42.7988 37.3686L41.9263 36.88ZM35.0462 43.36L34.5749 42.4781C31.6643 44.0337 27.9974 44.84 23.5263 44.84V45.84V46.84C28.2284 46.84 32.2415 45.993 35.5176 44.2419L35.0462 43.36ZM23.5263 45.84V44.84H15.0463V45.84V46.84H23.5263V45.84ZM15.0463 45.84H14.0463V66H15.0463H16.0463V45.84H15.0463ZM15.0463 66V65H1.36625V66V67H15.0463V66ZM1.36625 66H2.36625V9.84H1.36625H0.36625V66H1.36625ZM1.36625 9.84V10.84H23.5263V9.84V8.84H1.36625V9.84ZM23.5263 9.84V10.84C27.8953 10.84 31.5194 11.5946 34.439 13.0544L34.8863 12.16L35.3335 11.2656C32.0665 9.63207 28.1172 8.84 23.5263 8.84V9.84ZM34.8863 12.16L34.439 13.0544C37.3746 14.5222 39.5384 16.5245 40.977 19.0543L41.8463 18.56L42.7155 18.0657C41.0607 15.1555 38.5846 12.8911 35.3335 11.2656L34.8863 12.16ZM41.8463 18.56L40.977 19.0543C42.4277 21.6055 43.1663 24.5512 43.1663 27.92H44.1663H45.1663C45.1663 24.2488 44.3582 20.9544 42.7155 18.0657L41.8463 18.56ZM22.4862 34.96V35.96C25.2366 35.96 27.48 35.3161 29.0182 33.842L28.3263 33.12L27.6343 32.398C26.6125 33.3772 24.9626 33.96 22.4862 33.96V34.96ZM28.3263 33.12L29.0182 33.842C30.5439 32.3798 31.2463 30.3565 31.2463 27.92H30.2463H29.2463C29.2463 29.9635 28.6686 31.4068 27.6343 32.398L28.3263 33.12ZM30.2463 27.92H31.2463C31.2463 25.4835 30.5439 23.4602 29.0182 21.998L28.3263 22.72L27.6343 23.442C28.6686 24.4332 29.2463 25.8765 29.2463 27.92H30.2463ZM28.3263 22.72L29.0182 21.998C27.48 20.5239 25.2366 19.88 22.4862 19.88V20.88V21.88C24.9626 21.88 26.6125 22.4627 27.6343 23.442L28.3263 22.72ZM22.4862 20.88V19.88H15.0463V20.88V21.88H22.4862V20.88ZM15.0463 20.88H14.0463V34.96H15.0463H16.0463V20.88H15.0463ZM15.0463 34.96V35.96H22.4862V34.96V33.96H15.0463V34.96ZM64.9681 28.8H63.9681V32.1639L65.8057 29.3463L64.9681 28.8ZM70.9681 23.04L71.4684 23.9059L71.4755 23.9017L71.4826 23.8975L70.9681 23.04ZM78.9681 20.88H79.9681V19.88H78.9681V20.88ZM78.9681 35.36V36.36H79.9681V35.36H78.9681ZM67.5281 37.6L68.173 38.3643L68.1799 38.3585L68.1866 38.3526L67.5281 37.6ZM64.9681 66V67H65.9681V66H64.9681ZM51.2881 66H50.2881V67H51.2881V66ZM51.2881 21.36V20.36H50.2881V21.36H51.2881ZM64.9681 21.36H65.9681V20.36H64.9681V21.36ZM64.9681 28.8L65.8057 29.3463C67.325 27.0168 69.2121 25.2095 71.4684 23.9059L70.9681 23.04L70.4678 22.1741C67.9242 23.6438 65.8113 25.6765 64.1305 28.2537L64.9681 28.8ZM70.9681 23.04L71.4826 23.8975C73.7196 22.5553 76.2069 21.88 78.9681 21.88V20.88V19.88C75.8626 19.88 73.0167 20.6447 70.4536 22.1825L70.9681 23.04ZM78.9681 20.88H77.9681V35.36H78.9681H79.9681V20.88H78.9681ZM78.9681 35.36V34.36H75.2081V35.36V36.36H78.9681V35.36ZM75.2081 35.36V34.36C71.671 34.36 68.8314 35.1309 66.8696 36.8474L67.5281 37.6L68.1866 38.3526C69.6382 37.0825 71.9186 36.36 75.2081 36.36V35.36ZM67.5281 37.6L66.8833 36.8357C64.8399 38.5598 63.9681 41.4917 63.9681 45.28H64.9681H65.9681C65.9681 41.7083 66.803 39.5202 68.173 38.3643L67.5281 37.6ZM64.9681 45.28H63.9681V66H64.9681H65.9681V45.28H64.9681ZM64.9681 66V65H51.2881V66V67H64.9681V66ZM51.2881 66H52.2881V21.36H51.2881H50.2881V66H51.2881ZM51.2881 21.36V22.36H64.9681V21.36V20.36H51.2881V21.36ZM64.9681 21.36H63.9681V28.8H64.9681H65.9681V21.36H64.9681ZM93.9869 63.84L93.5128 64.7205L93.5184 64.7235L93.9869 63.84ZM85.7469 55.84L84.8778 56.3347L84.8836 56.3447L85.7469 55.84ZM85.8269 31.6L86.6902 32.1047L86.6935 32.099L85.8269 31.6ZM94.1469 23.52L94.6154 24.4035L94.1469 23.52ZM117.827 23.52L117.358 24.4035L117.827 23.52ZM126.147 31.6L125.28 32.099L125.284 32.1047L126.147 31.6ZM126.067 55.84L125.206 55.3313L125.204 55.3353L126.067 55.84ZM117.667 63.84L117.204 62.9536L117.198 62.9565L117.667 63.84ZM112.467 51.92L111.75 51.2229L111.745 51.2281L111.74 51.2334L112.467 51.92ZM112.547 35.44L111.81 36.1157L111.815 36.1212L111.82 36.1266L112.547 35.44ZM99.3469 35.44L100.075 36.1261L100.084 36.1157L99.3469 35.44ZM99.2669 51.92L98.5195 52.5844L98.5246 52.5901L98.5297 52.5957L99.2669 51.92ZM105.827 66.64V65.64C101.601 65.64 97.8173 64.7394 94.4554 62.9565L93.9869 63.84L93.5184 64.7235C97.1964 66.6739 101.306 67.64 105.827 67.64V66.64ZM93.9869 63.84L94.461 62.9595C91.1595 61.1818 88.546 58.6467 86.6102 55.3353L85.7469 55.84L84.8836 56.3447C87.001 59.9667 89.881 62.7649 93.5128 64.7205L93.9869 63.84ZM85.7469 55.84L86.6159 55.3453C84.7415 52.0524 83.7869 48.1751 83.7869 43.68H82.7869H81.7869C81.7869 48.4649 82.8056 52.6943 84.8778 56.3347L85.7469 55.84ZM82.7869 43.68H83.7869C83.7869 39.2451 84.7651 35.3975 86.6902 32.1047L85.8269 31.6L84.9636 31.0953C82.8353 34.7358 81.7869 38.9416 81.7869 43.68H82.7869ZM85.8269 31.6L86.6935 32.099C88.6282 28.7387 91.265 26.1802 94.6154 24.4035L94.1469 23.52L93.6784 22.6365C89.9888 24.5932 87.0789 27.4213 84.9603 31.101L85.8269 31.6ZM94.1469 23.52L94.6154 24.4035C97.9773 22.6206 101.761 21.72 105.987 21.72V20.72V19.72C101.466 19.72 97.3564 20.6861 93.6784 22.6365L94.1469 23.52ZM105.987 20.72V21.72C110.213 21.72 113.996 22.6206 117.358 24.4035L117.827 23.52L118.295 22.6365C114.617 20.6861 110.507 19.72 105.987 19.72V20.72ZM117.827 23.52L117.358 24.4035C120.709 26.1802 123.346 28.7387 125.28 32.099L126.147 31.6L127.014 31.101C124.895 27.4213 121.985 24.5932 118.295 22.6365L117.827 23.52ZM126.147 31.6L125.284 32.1047C127.209 35.3975 128.187 39.2451 128.187 43.68H129.187H130.187C130.187 38.9416 129.138 34.7358 127.01 31.0953L126.147 31.6ZM129.187 43.68H128.187C128.187 48.11 127.184 51.9835 125.206 55.3313L126.067 55.84L126.928 56.3487C129.11 52.6565 130.187 48.4233 130.187 43.68H129.187ZM126.067 55.84L125.204 55.3353C123.272 58.639 120.611 61.1737 117.204 62.9537L117.667 63.84L118.13 64.7263C121.869 62.773 124.808 59.9744 126.93 56.3447L126.067 55.84ZM117.667 63.84L117.198 62.9565C113.836 64.7394 110.053 65.64 105.827 65.64V66.64V67.64C110.347 67.64 114.457 66.6739 118.135 64.7235L117.667 63.84ZM105.827 54.8V55.8C108.719 55.8 111.194 54.7243 113.194 52.6066L112.467 51.92L111.74 51.2334C110.113 52.9557 108.162 53.8 105.827 53.8V54.8ZM112.467 51.92L113.184 52.6171C115.286 50.4548 116.267 47.4241 116.267 43.68H115.267H114.267C114.267 47.0825 113.381 49.5452 111.75 51.2229L112.467 51.92ZM115.267 43.68H116.267C116.267 39.9432 115.317 36.9165 113.274 34.7534L112.547 35.44L111.82 36.1266C113.404 37.8035 114.267 40.2702 114.267 43.68H115.267ZM112.547 35.44L113.284 34.7643C111.334 32.6369 108.879 31.56 105.987 31.56V32.56V33.56C108.321 33.56 110.24 34.4031 111.81 36.1157L112.547 35.44ZM105.987 32.56V31.56C103.047 31.56 100.564 32.6321 98.6097 34.7643L99.3469 35.44L100.084 36.1157C101.65 34.4079 103.593 33.56 105.987 33.56V32.56ZM99.3469 35.44L98.6193 34.754C96.6232 36.871 95.7069 39.904 95.7069 43.68H96.7069H97.7069C97.7069 40.2026 98.5505 37.7423 100.074 36.126L99.3469 35.44ZM96.7069 43.68H95.7069C95.7069 47.4025 96.5961 50.4206 98.5195 52.5844L99.2669 51.92L100.014 51.2556C98.5243 49.5794 97.7069 47.1042 97.7069 43.68H96.7069ZM99.2669 51.92L98.5297 52.5957C100.48 54.7231 102.934 55.8 105.827 55.8V54.8V53.8C103.493 53.8 101.574 52.9569 100.004 51.2443L99.2669 51.92ZM136.284 31.52L135.393 31.0673L135.387 31.0783L136.284 31.52ZM143.404 23.52L143.934 24.368L143.404 23.52ZM161.404 22.56L160.949 23.4505L160.957 23.4544L161.404 22.56ZM167.164 27.52L166.332 28.0747L168.164 30.8228V27.52H167.164ZM167.164 6.8V5.8H166.164V6.8H167.164ZM180.844 6.8H181.844V5.8H180.844V6.8ZM180.844 66V67H181.844V66H180.844ZM167.164 66H166.164V67H167.164V66ZM167.164 59.6H168.164V55.9897L166.307 59.0855L167.164 59.6ZM161.644 64.72L161.174 63.8376L161.166 63.8421L161.644 64.72ZM143.404 63.84L142.864 64.6812L142.874 64.688L143.404 63.84ZM136.284 55.76L135.385 56.1963L135.389 56.2045L135.393 56.2127L136.284 55.76ZM164.284 35.6L163.558 36.2873L163.568 36.2974L164.284 35.6ZM150.444 35.6L149.728 34.9026L149.727 34.9029L150.444 35.6ZM150.444 51.76L149.709 52.4375L149.718 52.4475L149.728 52.4574L150.444 51.76ZM164.284 51.76L163.568 51.0626L163.558 51.0728L164.284 51.76ZM133.724 43.6H134.724C134.724 39.1381 135.554 35.2675 137.182 31.9617L136.284 31.52L135.387 31.0783C133.601 34.7058 132.724 38.8886 132.724 43.6H133.724ZM136.284 31.52L137.176 31.9727C138.863 28.6509 141.118 26.1284 143.934 24.368L143.404 23.52L142.874 22.672C139.718 24.6449 137.226 27.4558 135.393 31.0673L136.284 31.52ZM143.404 23.52L143.934 24.368C146.755 22.6052 149.903 21.72 153.404 21.72V20.72V19.72C149.546 19.72 146.027 20.7014 142.874 22.672L143.404 23.52ZM153.404 20.72V21.72C156.194 21.72 158.702 22.302 160.949 23.4504L161.404 22.56L161.859 21.6696C159.306 20.3647 156.482 19.72 153.404 19.72V20.72ZM161.404 22.56L160.957 23.4544C163.27 24.611 165.051 26.1533 166.332 28.0747L167.164 27.52L167.996 26.9653C166.504 24.7267 164.445 22.9623 161.852 21.6656L161.404 22.56ZM167.164 27.52H168.164V6.8H167.164H166.164V27.52H167.164ZM167.164 6.8V7.8H180.844V6.8V5.8H167.164V6.8ZM180.844 6.8H179.844V66H180.844H181.844V6.8H180.844ZM180.844 66V65H167.164V66V67H180.844V66ZM167.164 66H168.164V59.6H167.164H166.164V66H167.164ZM167.164 59.6L166.307 59.0855C165.129 61.0491 163.429 62.6347 161.174 63.8376L161.644 64.72L162.115 65.6024C164.659 64.2453 166.64 62.4176 168.022 60.1145L167.164 59.6ZM161.644 64.72L161.166 63.8421C158.99 65.0289 156.413 65.64 153.404 65.64V66.64V67.64C156.689 67.64 159.606 66.9711 162.123 65.5979L161.644 64.72ZM153.404 66.64V65.64C149.903 65.64 146.755 64.7548 143.934 62.992L143.404 63.84L142.874 64.688C146.027 66.6586 149.546 67.64 153.404 67.64V66.64ZM143.404 63.84L143.945 62.9988C141.122 61.1838 138.864 58.6311 137.176 55.3073L136.284 55.76L135.393 56.2127C137.225 59.8222 139.714 62.6562 142.864 64.6812L143.404 63.84ZM136.284 55.76L137.184 55.3237C135.554 51.9613 134.724 48.0615 134.724 43.6H133.724H132.724C132.724 48.3119 133.602 52.5187 135.385 56.1963L136.284 55.76ZM167.164 43.68H168.164C168.164 40.0721 167.144 37.1051 165.001 34.9026L164.284 35.6L163.568 36.2974C165.265 38.0416 166.164 40.4613 166.164 43.68H167.164ZM164.284 35.6L165.011 34.9128C162.955 32.7395 160.399 31.64 157.404 31.64V32.64V33.64C159.85 33.64 161.88 34.5138 163.558 36.2872L164.284 35.6ZM157.404 32.64V31.64C154.411 31.64 151.833 32.7385 149.728 34.9026L150.444 35.6L151.161 36.2974C152.895 34.5148 154.958 33.64 157.404 33.64V32.64ZM150.444 35.6L149.727 34.9029C147.633 37.0571 146.644 40.001 146.644 43.6H147.644H148.644C148.644 40.3723 149.522 37.9829 151.161 36.2971L150.444 35.6ZM147.644 43.6H146.644C146.644 47.2016 147.634 50.1847 149.709 52.4375L150.444 51.76L151.18 51.0825C149.521 49.282 148.644 46.825 148.644 43.6H147.644ZM150.444 51.76L149.728 52.4574C151.833 54.6215 154.411 55.72 157.404 55.72V54.72V53.72C154.958 53.72 152.895 52.8452 151.161 51.0626L150.444 51.76ZM157.404 54.72V55.72C160.399 55.72 162.955 54.6205 165.011 52.4472L164.284 51.76L163.558 51.0728C161.88 52.8462 159.85 53.72 157.404 53.72V54.72ZM164.284 51.76L165.001 52.4574C167.144 50.2549 168.164 47.2879 168.164 43.68H167.164H166.164C166.164 46.8987 165.265 49.3184 163.568 51.0626L164.284 51.76ZM234.821 21.36H235.821V20.36H234.821V21.36ZM234.821 66V67H235.821V66H234.821ZM221.141 66H220.141V67H221.141V66ZM221.141 59.92H222.141V56.7576L220.323 59.3451L221.141 59.92ZM215.461 64.72L215.908 65.6145L215.916 65.6104L215.461 64.72ZM198.581 64.24L198.072 65.1006L198.078 65.1045L198.085 65.1082L198.581 64.24ZM192.501 57.6L191.607 58.0472L192.501 57.6ZM190.341 21.36V20.36H189.341V21.36H190.341ZM203.941 21.36H204.941V20.36H203.941V21.36ZM206.261 52.56L205.531 53.2432L206.261 52.56ZM221.141 21.36V20.36H220.141V21.36H221.141ZM234.821 21.36H233.821V66H234.821H235.821V21.36H234.821ZM234.821 66V65H221.141V66V67H234.821V66ZM221.141 66H222.141V59.92H221.141H220.141V66H221.141ZM221.141 59.92L220.323 59.3451C219.041 61.1702 217.279 62.6681 215.006 63.8296L215.461 64.72L215.916 65.6104C218.444 64.3186 220.469 62.6164 221.959 60.4949L221.141 59.92ZM215.461 64.72L215.014 63.8256C212.819 64.9229 210.361 65.48 207.621 65.48V66.48V67.48C210.641 67.48 213.41 66.8638 215.908 65.6144L215.461 64.72ZM207.621 66.48V65.48C204.358 65.48 201.52 64.7677 199.077 63.3718L198.581 64.24L198.085 65.1082C200.869 66.699 204.058 67.48 207.621 67.48V66.48ZM198.581 64.24L199.091 63.3794C196.653 61.9367 194.755 59.8717 193.396 57.1528L192.501 57.6L191.607 58.0472C193.127 61.0883 195.283 63.45 198.072 65.1006L198.581 64.24ZM192.501 57.6L193.396 57.1528C192.038 54.4377 191.341 51.2101 191.341 47.44H190.341H189.341C189.341 51.4565 190.084 55.0023 191.607 58.0472L192.501 57.6ZM190.341 47.44H191.341V21.36H190.341H189.341V47.44H190.341ZM190.341 21.36V22.36H203.941V21.36V20.36H190.341V21.36ZM203.941 21.36H202.941V45.6H203.941H204.941V21.36H203.941ZM203.941 45.6H202.941C202.941 48.7572 203.762 51.3517 205.531 53.2432L206.261 52.56L206.992 51.8768C205.668 50.4617 204.941 48.4161 204.941 45.6H203.941ZM206.261 52.56L205.531 53.2432C207.296 55.1304 209.658 56.04 212.501 56.04V55.04V54.04C210.118 54.04 208.319 53.2963 206.992 51.8768L206.261 52.56ZM212.501 55.04V56.04C215.391 56.04 217.782 55.1347 219.552 53.2432L218.821 52.56L218.091 51.8768C216.767 53.292 214.945 54.04 212.501 54.04V55.04ZM218.821 52.56L219.552 53.2432C221.321 51.3517 222.141 48.7572 222.141 45.6H221.141H220.141C220.141 48.4161 219.415 50.4617 218.091 51.8768L218.821 52.56ZM221.141 45.6H222.141V21.36H221.141H220.141V45.6H221.141ZM221.141 21.36V22.36H234.821V21.36V20.36H221.141V21.36ZM244.727 31.52L243.853 31.0355L243.847 31.0459L244.727 31.52ZM252.647 23.52L252.168 22.6426L252.162 22.6458L252.647 23.52ZM278.328 25.12L277.71 25.9063L277.715 25.9105L278.328 25.12ZM285.768 37.52V38.52H287.011L286.744 37.3051L285.768 37.52ZM271.207 37.52L270.266 37.8582L270.504 38.52H271.207V37.52ZM258.087 35.36L258.877 35.974L258.885 35.9634L258.087 35.36ZM258.087 52.08L257.29 52.6835L257.298 52.6939L258.087 52.08ZM271.207 49.84V48.84H270.504L270.266 49.5018L271.207 49.84ZM285.768 49.84L286.743 50.059L287.017 48.84H285.768V49.84ZM278.328 62.16L277.708 61.3748L278.328 62.16ZM252.647 63.84L252.162 64.7142L252.168 64.7174L252.647 63.84ZM244.727 55.84L243.847 56.3141L243.853 56.3245L244.727 55.84ZM241.928 43.68H242.928C242.928 39.1759 243.833 35.2911 245.608 31.9941L244.727 31.52L243.847 31.0459C241.889 34.6823 240.928 38.9041 240.928 43.68H241.928ZM244.727 31.52L245.602 32.0045C247.435 28.6962 249.942 26.167 253.133 24.3942L252.647 23.52L252.162 22.6458C248.633 24.6063 245.86 27.4104 243.853 31.0355L244.727 31.52ZM252.647 23.52L253.127 24.3974C256.376 22.6207 260.101 21.72 264.328 21.72V20.72V19.72C259.808 19.72 255.746 20.6859 252.168 22.6426L252.647 23.52ZM264.328 20.72V21.72C269.745 21.72 274.183 23.1352 277.71 25.9063L278.328 25.12L278.945 24.3337C275.006 21.2381 270.11 19.72 264.328 19.72V20.72ZM278.328 25.12L277.715 25.9105C281.291 28.6806 283.66 32.5962 284.791 37.7349L285.768 37.52L286.744 37.3051C285.528 31.7771 282.937 27.426 278.94 24.3294L278.328 25.12ZM285.768 37.52V36.52H271.207V37.52V38.52H285.768V37.52ZM271.207 37.52L272.149 37.1818C271.483 35.3309 270.478 33.8653 269.091 32.8681C267.702 31.8692 266.013 31.4 264.087 31.4V32.4V33.4C265.682 33.4 266.939 33.7841 267.924 34.4919C268.91 35.2014 269.705 36.2957 270.266 37.8582L271.207 37.52ZM264.087 32.4V31.4C261.272 31.4 258.975 32.5297 257.29 34.7566L258.087 35.36L258.885 35.9634C260.186 34.2437 261.889 33.4 264.087 33.4V32.4ZM258.087 35.36L257.298 34.7461C255.616 36.9093 254.848 39.9354 254.848 43.68H255.848H256.848C256.848 40.1712 257.573 37.6507 258.877 35.9739L258.087 35.36ZM255.848 43.68H254.848C254.848 47.4271 255.617 50.4721 257.29 52.6834L258.087 52.08L258.885 51.4766C257.572 49.7412 256.848 47.1862 256.848 43.68H255.848ZM258.087 52.08L257.298 52.6939C258.988 54.8661 261.283 55.96 264.087 55.96V54.96V53.96C261.878 53.96 260.174 53.1339 258.877 51.4661L258.087 52.08ZM264.087 54.96V55.96C266.013 55.96 267.702 55.4908 269.091 54.4919C270.478 53.4947 271.483 52.0291 272.149 50.1782L271.207 49.84L270.266 49.5018C269.705 51.0643 268.91 52.1586 267.924 52.8681C266.939 53.5759 265.682 53.96 264.087 53.96V54.96ZM271.207 49.84V50.84H285.768V49.84V48.84H271.207V49.84ZM285.768 49.84L284.792 49.621C283.663 54.65 281.294 58.5462 277.708 61.3748L278.328 62.16L278.947 62.9452C282.934 59.8004 285.526 55.4834 286.743 50.059L285.768 49.84ZM278.328 62.16L277.708 61.3748C274.124 64.2019 269.685 65.64 264.328 65.64V66.64V67.64C270.064 67.64 274.958 66.0914 278.947 62.9452L278.328 62.16ZM264.328 66.64V65.64C260.101 65.64 256.376 64.7393 253.127 62.9626L252.647 63.84L252.168 64.7174C255.746 66.6741 259.808 67.64 264.328 67.64V66.64ZM252.647 63.84L253.133 62.9658C249.942 61.193 247.435 58.6638 245.602 55.3555L244.727 55.84L243.853 56.3245C245.86 59.9496 248.633 62.7537 252.162 64.7142L252.647 63.84ZM244.727 55.84L245.608 55.3659C243.833 52.0689 242.928 48.1841 242.928 43.68H241.928H240.928C240.928 48.4559 241.889 52.6777 243.847 56.3141L244.727 55.84ZM317.965 54.4H318.965V53.4H317.965V54.4ZM317.965 66V67H318.965V66H317.965ZM299.405 62.4L298.742 63.149L298.751 63.1562L299.405 62.4ZM295.245 32.72H296.245V31.72H295.245V32.72ZM289.805 32.72H288.805V33.72H289.805V32.72ZM289.805 21.36V20.36H288.805V21.36H289.805ZM295.245 21.36V22.36H296.245V21.36H295.245ZM295.245 10.48V9.48H294.245V10.48H295.245ZM308.925 10.48H309.925V9.48H308.925V10.48ZM308.925 21.36H307.925V22.36H308.925V21.36ZM317.885 21.36H318.885V20.36H317.885V21.36ZM317.885 32.72V33.72H318.885V32.72H317.885ZM308.925 32.72V31.72H307.925V32.72H308.925ZM309.885 53.52L309.209 54.2572L309.885 53.52ZM317.965 54.4H316.965V66H317.965H318.965V54.4H317.965ZM317.965 66V65H311.005V66V67H317.965V66ZM311.005 66V65C306.2 65 302.595 63.8386 300.059 61.6438L299.405 62.4L298.751 63.1562C301.761 65.7615 305.89 67 311.005 67V66ZM299.405 62.4L300.068 61.651C297.595 59.4639 296.245 55.8271 296.245 50.48H295.245H294.245C294.245 56.1196 295.668 60.4294 298.742 63.149L299.405 62.4ZM295.245 50.48H296.245V32.72H295.245H294.245V50.48H295.245ZM295.245 32.72V31.72H289.805V32.72V33.72H295.245V32.72ZM289.805 32.72H290.805V21.36H289.805H288.805V32.72H289.805ZM289.805 21.36V22.36H295.245V21.36V20.36H289.805V21.36ZM295.245 21.36H296.245V10.48H295.245H294.245V21.36H295.245ZM295.245 10.48V11.48H308.925V10.48V9.48H295.245V10.48ZM308.925 10.48H307.925V21.36H308.925H309.925V10.48H308.925ZM308.925 21.36V22.36H317.885V21.36V20.36H308.925V21.36ZM317.885 21.36H316.885V32.72H317.885H318.885V21.36H317.885ZM317.885 32.72V31.72H308.925V32.72V33.72H317.885V32.72ZM308.925 32.72H307.925V50.64H308.925H309.925V32.72H308.925ZM308.925 50.64H307.925C307.925 52.1046 308.274 53.3996 309.209 54.2572L309.885 53.52L310.561 52.7828C310.216 52.4671 309.925 51.842 309.925 50.64H308.925ZM309.885 53.52L309.209 54.2572C310.127 55.0988 311.507 55.4 313.085 55.4V54.4V53.4C311.676 53.4 310.923 53.1145 310.561 52.7828L309.885 53.52ZM313.085 54.4V55.4H317.965V54.4V53.4H313.085V54.4ZM379.098 13.36L379.566 12.4765L379.098 13.36ZM389.338 23.28L388.467 23.7703L388.47 23.7767L388.474 23.7832L389.338 23.28ZM389.338 52.56L388.471 52.0615L388.467 52.0697L389.338 52.56ZM379.018 62.48L378.554 61.5942L378.55 61.5965L379.018 62.48ZM342.538 66H341.538V67H342.538V66ZM342.538 9.84V8.84H341.538V9.84H342.538ZM356.218 21.52V20.52H355.218V21.52H356.218ZM356.218 54.16H355.218V55.16H356.218V54.16ZM363.578 9.84V10.84C369.364 10.84 374.371 11.9861 378.63 14.2435L379.098 13.36L379.566 12.4765C374.971 10.0406 369.632 8.84 363.578 8.84V9.84ZM379.098 13.36L378.63 14.2435C382.891 16.5027 386.163 19.6747 388.467 23.7703L389.338 23.28L390.21 22.7897C387.713 18.352 384.158 14.9107 379.566 12.4765L379.098 13.36ZM389.338 23.28L388.474 23.7832C390.827 27.8237 392.018 32.5253 392.018 37.92H393.018H394.018C394.018 32.2213 392.756 27.163 390.202 22.7768L389.338 23.28ZM393.018 37.92H392.018C392.018 43.2592 390.828 47.9636 388.471 52.0615L389.338 52.56L390.205 53.0585C392.755 48.6231 394.018 43.5675 394.018 37.92H393.018ZM389.338 52.56L388.467 52.0697C386.165 56.1621 382.869 59.3341 378.554 61.5942L379.018 62.48L379.482 63.3658C384.127 60.9326 387.712 57.4912 390.21 53.0503L389.338 52.56ZM379.018 62.48L378.55 61.5965C374.29 63.8546 369.309 65 363.578 65V66V67C369.58 67 374.893 65.7988 379.487 63.3635L379.018 62.48ZM363.578 66V65H342.538V66V67H363.578V66ZM342.538 66H343.538V9.84H342.538H341.538V66H342.538ZM342.538 9.84V10.84H363.578V9.84V8.84H342.538V9.84ZM362.698 54.16V55.16C368.056 55.16 372.363 53.6916 375.479 50.6337L374.778 49.92L374.078 49.2063C371.433 51.8017 367.687 53.16 362.698 53.16V54.16ZM374.778 49.92L375.479 50.6337C378.6 47.5697 380.098 43.2823 380.098 37.92H379.098H378.098C378.098 42.9044 376.716 46.6169 374.078 49.2063L374.778 49.92ZM379.098 37.92H380.098C380.098 32.5567 378.6 28.2477 375.485 25.1329L374.778 25.84L374.071 26.5471C376.716 29.1923 378.098 32.9366 378.098 37.92H379.098ZM374.778 25.84L375.485 25.1329C372.37 22.0181 368.061 20.52 362.698 20.52V21.52V22.52C367.682 22.52 371.426 23.9019 374.071 26.5471L374.778 25.84ZM362.698 21.52V20.52H356.218V21.52V22.52H362.698V21.52ZM356.218 21.52H355.218V54.16H356.218H357.218V21.52H356.218ZM356.218 54.16V55.16H362.698V54.16V53.16H356.218V54.16ZM442.503 46.96V47.96H443.394L443.497 47.0746L442.503 46.96ZM411.543 46.96V45.96H410.463L410.546 47.0367L411.543 46.96ZM414.183 53.36L413.489 54.0794L413.501 54.0916L413.514 54.1033L414.183 53.36ZM427.143 51.2V50.2H426.504L426.236 50.7799L427.143 51.2ZM441.703 51.2L442.672 51.4467L442.99 50.2H441.703V51.2ZM437.623 59.12L436.858 58.4763L436.849 58.4868L437.623 59.12ZM430.343 64.64L430.757 65.5504L430.343 64.64ZM408.823 63.84L408.343 64.7174L408.823 63.84ZM400.823 55.84L401.698 55.3555L400.823 55.84ZM400.743 31.52L399.868 31.0355L399.863 31.0459L400.743 31.52ZM408.743 23.52L409.223 24.3974L408.743 23.52ZM432.023 23.44L431.548 24.32L432.023 23.44ZM439.863 31.2L438.989 31.6857L438.995 31.6961L439.863 31.2ZM428.743 39.36V40.36H429.743V39.36H428.743ZM426.343 33.76L426.998 33.0043V33.0043L426.343 33.76ZM414.503 33.68L413.863 32.9118L413.857 32.9171L413.85 32.9226L414.503 33.68ZM411.623 39.36L410.635 39.2096L410.459 40.36H411.623V39.36ZM442.743 42.96H441.743C441.743 44.1984 441.666 45.4934 441.51 46.8454L442.503 46.96L443.497 47.0746C443.661 45.6533 443.743 44.2816 443.743 42.96H442.743ZM442.503 46.96V45.96H411.543V46.96V47.96H442.503V46.96ZM411.543 46.96L410.546 47.0367C410.773 49.9805 411.719 52.371 413.489 54.0794L414.183 53.36L414.878 52.6406C413.554 51.3623 412.74 49.4861 412.54 46.8833L411.543 46.96ZM414.183 53.36L413.514 54.1033C415.31 55.72 417.5 56.52 420.023 56.52V55.52V54.52C417.959 54.52 416.256 53.88 414.852 52.6167L414.183 53.36ZM420.023 55.52V56.52C421.871 56.52 423.507 56.1294 424.882 55.2949C426.262 54.4576 427.313 53.2138 428.051 51.6201L427.143 51.2L426.236 50.7799C425.64 52.0662 424.838 52.9824 423.844 53.5851C422.846 54.1906 421.589 54.52 420.023 54.52V55.52ZM427.143 51.2V52.2H441.703V51.2V50.2H427.143V51.2ZM441.703 51.2L440.734 50.9533C440.025 53.7387 438.735 56.2435 436.858 58.4764L437.623 59.12L438.388 59.7636C440.457 57.3032 441.888 54.5279 442.672 51.4467L441.703 51.2ZM437.623 59.12L436.849 58.4868C435.032 60.7072 432.732 62.4557 429.929 63.7296L430.343 64.64L430.757 65.5504C433.821 64.1576 436.374 62.2261 438.397 59.7532L437.623 59.12ZM430.343 64.64L429.929 63.7296C427.141 64.9969 424.005 65.64 420.503 65.64V66.64V67.64C424.255 67.64 427.678 66.9498 430.757 65.5504L430.343 64.64ZM420.503 66.64V65.64C416.276 65.64 412.552 64.7393 409.303 62.9626L408.823 63.84L408.343 64.7174C411.921 66.6741 415.983 67.64 420.503 67.64V66.64ZM408.823 63.84L409.303 62.9626C406.059 61.1886 403.528 58.6597 401.698 55.3555L400.823 55.84L399.948 56.3245C401.958 59.9536 404.761 62.758 408.343 64.7174L408.823 63.84ZM400.823 55.84L401.698 55.3555C399.873 52.0606 398.943 48.1796 398.943 43.68H397.943H396.943C396.943 48.4604 397.933 52.686 399.948 56.3245L400.823 55.84ZM397.943 43.68H398.943C398.943 39.1759 399.848 35.2911 401.624 31.9941L400.743 31.52L399.863 31.0459C397.905 34.6823 396.943 38.9041 396.943 43.68H397.943ZM400.743 31.52L401.618 32.0045C403.448 28.7003 405.979 26.1714 409.223 24.3974L408.743 23.52L408.263 22.6426C404.681 24.602 401.878 27.4064 399.868 31.0355L400.743 31.52ZM408.743 23.52L409.223 24.3974C412.47 22.6217 416.221 21.72 420.503 21.72V20.72V19.72C415.932 19.72 411.843 20.685 408.263 22.6426L408.743 23.52ZM420.503 20.72V21.72C424.679 21.72 428.352 22.5953 431.548 24.32L432.023 23.44L432.498 22.56C428.974 20.658 424.967 19.72 420.503 19.72V20.72ZM432.023 23.44L431.548 24.32C434.739 26.042 437.214 28.4913 438.989 31.6856L439.863 31.2L440.737 30.7144C438.779 27.1887 436.027 24.4646 432.498 22.56L432.023 23.44ZM439.863 31.2L438.995 31.6961C440.816 34.8827 441.743 38.6263 441.743 42.96H442.743H443.743C443.743 38.3337 442.751 34.2373 440.731 30.7039L439.863 31.2ZM428.743 39.36H429.743C429.743 36.7586 428.843 34.6029 426.998 33.0043L426.343 33.76L425.688 34.5157C427.044 35.6905 427.743 37.2681 427.743 39.36H428.743ZM426.343 33.76L426.998 33.0043C425.192 31.439 422.949 30.68 420.343 30.68V31.68V32.68C422.537 32.68 424.294 33.3077 425.688 34.5157L426.343 33.76ZM420.343 31.68V30.68C417.841 30.68 415.661 31.4132 413.863 32.9118L414.503 33.68L415.143 34.4482C416.545 33.2801 418.258 32.68 420.343 32.68V31.68ZM414.503 33.68L413.85 32.9226C412.086 34.4434 411.036 36.5732 410.635 39.2096L411.623 39.36L412.612 39.5104C412.957 37.2401 413.827 35.5832 415.156 34.4374L414.503 33.68ZM411.623 39.36V40.36H428.743V39.36V38.36H411.623V39.36ZM474.84 54.4H475.84V53.4H474.84V54.4ZM474.84 66V67H475.84V66H474.84ZM456.28 62.4L455.617 63.149L455.626 63.1562L456.28 62.4ZM452.12 32.72H453.12V31.72H452.12V32.72ZM446.68 32.72H445.68V33.72H446.68V32.72ZM446.68 21.36V20.36H445.68V21.36H446.68ZM452.12 21.36V22.36H453.12V21.36H452.12ZM452.12 10.48V9.48H451.12V10.48H452.12ZM465.8 10.48H466.8V9.48H465.8V10.48ZM465.8 21.36H464.8V22.36H465.8V21.36ZM474.76 21.36H475.76V20.36H474.76V21.36ZM474.76 32.72V33.72H475.76V32.72H474.76ZM465.8 32.72V31.72H464.8V32.72H465.8ZM466.76 53.52L466.084 54.2572L466.76 53.52ZM474.84 54.4H473.84V66H474.84H475.84V54.4H474.84ZM474.84 66V65H467.88V66V67H474.84V66ZM467.88 66V65C463.075 65 459.47 63.8386 456.934 61.6438L456.28 62.4L455.626 63.1562C458.636 65.7615 462.765 67 467.88 67V66ZM456.28 62.4L456.943 61.651C454.47 59.4639 453.12 55.8271 453.12 50.48H452.12H451.12C451.12 56.1196 452.543 60.4294 455.617 63.149L456.28 62.4ZM452.12 50.48H453.12V32.72H452.12H451.12V50.48H452.12ZM452.12 32.72V31.72H446.68V32.72V33.72H452.12V32.72ZM446.68 32.72H447.68V21.36H446.68H445.68V32.72H446.68ZM446.68 21.36V22.36H452.12V21.36V20.36H446.68V21.36ZM452.12 21.36H453.12V10.48H452.12H451.12V21.36H452.12ZM452.12 10.48V11.48H465.8V10.48V9.48H452.12V10.48ZM465.8 10.48H464.8V21.36H465.8H466.8V10.48H465.8ZM465.8 21.36V22.36H474.76V21.36V20.36H465.8V21.36ZM474.76 21.36H473.76V32.72H474.76H475.76V21.36H474.76ZM474.76 32.72V31.72H465.8V32.72V33.72H474.76V32.72ZM465.8 32.72H464.8V50.64H465.8H466.8V32.72H465.8ZM465.8 50.64H464.8C464.8 52.1046 465.149 53.3996 466.084 54.2572L466.76 53.52L467.436 52.7828C467.091 52.4671 466.8 51.842 466.8 50.64H465.8ZM466.76 53.52L466.084 54.2572C467.002 55.0988 468.382 55.4 469.96 55.4V54.4V53.4C468.551 53.4 467.798 53.1145 467.436 52.7828L466.76 53.52ZM469.96 54.4V55.4H474.84V54.4V53.4H469.96V54.4ZM482.3 31.52L481.408 31.0673L481.403 31.0783L482.3 31.52ZM489.42 23.52L489.95 24.368L489.42 23.52ZM507.66 22.64L507.181 23.5179L507.189 23.5223L507.66 22.64ZM513.18 27.68L512.328 28.2041L514.18 31.213V27.68H513.18ZM513.18 21.36V20.36H512.18V21.36H513.18ZM526.86 21.36H527.86V20.36H526.86V21.36ZM526.86 66V67H527.86V66H526.86ZM513.18 66H512.18V67H513.18V66ZM513.18 59.68H514.18V56.267L512.338 59.1403L513.18 59.68ZM507.58 64.72L507.109 63.8376L507.101 63.8421L507.58 64.72ZM489.42 63.84L488.879 64.6812L488.89 64.688L489.42 63.84ZM482.3 55.76L481.4 56.1963L481.404 56.2045L481.408 56.2127L482.3 55.76ZM510.3 35.6L509.573 36.2873L509.583 36.2974L510.3 35.6ZM496.46 35.6L495.743 34.9026L495.743 34.9029L496.46 35.6ZM496.46 51.76L495.724 52.4375L495.734 52.4475L495.743 52.4574L496.46 51.76ZM510.3 51.76L509.583 51.0626L509.574 51.0728L510.3 51.76ZM479.74 43.6H480.74C480.74 39.1381 481.57 35.2675 483.197 31.9617L482.3 31.52L481.403 31.0783C479.617 34.7058 478.74 38.8886 478.74 43.6H479.74ZM482.3 31.52L483.192 31.9727C484.878 28.6509 487.133 26.1284 489.95 24.368L489.42 23.52L488.89 22.672C485.733 24.6449 483.242 27.4558 481.408 31.0673L482.3 31.52ZM489.42 23.52L489.95 24.368C492.77 22.6052 495.919 21.72 499.42 21.72V20.72V19.72C495.561 19.72 492.043 20.7014 488.89 22.672L489.42 23.52ZM499.42 20.72V21.72C502.429 21.72 505.005 22.3311 507.181 23.5179L507.66 22.64L508.139 21.7621C505.621 20.3889 502.704 19.72 499.42 19.72V20.72ZM507.66 22.64L507.189 23.5223C509.451 24.7286 511.152 26.2919 512.328 28.2041L513.18 27.68L514.032 27.1559C512.648 24.9081 510.669 23.1114 508.131 21.7576L507.66 22.64ZM513.18 27.68H514.18V21.36H513.18H512.18V27.68H513.18ZM513.18 21.36V22.36H526.86V21.36V20.36H513.18V21.36ZM526.86 21.36H525.86V66H526.86H527.86V21.36H526.86ZM526.86 66V65H513.18V66V67H526.86V66ZM513.18 66H514.18V59.68H513.18H512.18V66H513.18ZM513.18 59.68L512.338 59.1403C511.106 61.062 509.374 62.6299 507.109 63.8376L507.58 64.72L508.051 65.6024C510.586 64.2501 512.587 62.458 514.022 60.2197L513.18 59.68ZM507.58 64.72L507.101 63.8421C504.925 65.0289 502.349 65.64 499.34 65.64V66.64V67.64C502.624 67.64 505.541 66.9711 508.059 65.5979L507.58 64.72ZM499.34 66.64V65.64C495.895 65.64 492.773 64.7563 489.95 62.992L489.42 63.84L488.89 64.688C492.04 66.6571 495.532 67.64 499.34 67.64V66.64ZM489.42 63.84L489.961 62.9988C487.137 61.1838 484.879 58.6311 483.192 55.3073L482.3 55.76L481.408 56.2127C483.241 59.8222 485.729 62.6562 488.879 64.6812L489.42 63.84ZM482.3 55.76L483.2 55.3237C481.57 51.9613 480.74 48.0615 480.74 43.6H479.74H478.74C478.74 48.3119 479.617 52.5187 481.4 56.1963L482.3 55.76ZM513.18 43.68H514.18C514.18 40.0721 513.16 37.1051 511.017 34.9026L510.3 35.6L509.583 36.2974C511.28 38.0416 512.18 40.4613 512.18 43.68H513.18ZM510.3 35.6L511.026 34.9128C508.971 32.7395 506.414 31.64 503.42 31.64V32.64V33.64C505.866 33.64 507.896 34.5138 509.574 36.2872L510.3 35.6ZM503.42 32.64V31.64C500.426 31.64 497.849 32.7385 495.743 34.9026L496.46 35.6L497.177 36.2974C498.911 34.5148 500.974 33.64 503.42 33.64V32.64ZM496.46 35.6L495.743 34.9029C493.649 37.0571 492.66 40.001 492.66 43.6H493.66H494.66C494.66 40.3723 495.538 37.9829 497.177 36.2971L496.46 35.6ZM493.66 43.6H492.66C492.66 47.2016 493.65 50.1847 495.724 52.4375L496.46 51.76L497.196 51.0825C495.537 49.282 494.66 46.825 494.66 43.6H493.66ZM496.46 51.76L495.743 52.4574C497.849 54.6215 500.426 55.72 503.42 55.72V54.72V53.72C500.974 53.72 498.911 52.8452 497.177 51.0626L496.46 51.76ZM503.42 54.72V55.72C506.414 55.72 508.971 54.6205 511.026 52.4472L510.3 51.76L509.574 51.0728C507.896 52.8462 505.866 53.72 503.42 53.72V54.72ZM510.3 51.76L511.017 52.4574C513.16 50.2549 514.18 47.2879 514.18 43.68H513.18H512.18C512.18 46.8987 511.28 49.3184 509.583 51.0626L510.3 51.76ZM537.717 14.64L537.023 15.3598L537.036 15.3724L537.049 15.3846L537.717 14.64ZM537.717 4.08L538.397 4.81279L538.398 4.81189L537.717 4.08ZM549.397 4.08L548.703 4.79984L548.716 4.81244L548.729 4.82457L549.397 4.08ZM549.397 14.64L550.077 15.3728L550.078 15.3719L549.397 14.64ZM550.437 21.36H551.437V20.36H550.437V21.36ZM550.437 66V67H551.437V66H550.437ZM536.757 66H535.757V67H536.757V66ZM536.757 21.36V20.36H535.757V21.36H536.757ZM543.637 16.72V15.72C541.443 15.72 539.719 15.0923 538.384 13.8954L537.717 14.64L537.049 15.3846C538.808 16.961 541.031 17.72 543.637 17.72V16.72ZM537.717 14.64L538.411 13.9202C537.114 12.6692 536.477 11.1693 536.477 9.36H535.477H534.477C534.477 11.7107 535.333 13.7308 537.023 15.3598L537.717 14.64ZM535.477 9.36H536.477C536.477 7.49005 537.118 6.00048 538.397 4.81279L537.717 4.08L537.036 3.3472C535.329 4.93285 534.477 6.96328 534.477 9.36H535.477ZM537.717 4.08L538.398 4.81189C539.734 3.56782 541.453 2.91999 543.637 2.91999V1.91999V0.919994C541.021 0.919994 538.793 1.71217 537.035 3.3481L537.717 4.08ZM543.637 1.91999V2.91999C545.761 2.91999 547.421 3.56359 548.703 4.79984L549.397 4.08L550.091 3.36015C548.386 1.7164 546.206 0.919994 543.637 0.919994V1.91999ZM549.397 4.08L548.729 4.82457C550.058 6.01579 550.717 7.50208 550.717 9.36H551.717H552.717C552.717 6.95125 551.829 4.91754 550.064 3.33543L549.397 4.08ZM551.717 9.36H550.717C550.717 11.1574 550.063 12.6538 548.715 13.9081L549.397 14.64L550.078 15.3719C551.824 13.7462 552.717 11.7226 552.717 9.36H551.717ZM549.397 14.64L548.716 13.9072C547.436 15.0961 545.772 15.72 543.637 15.72V16.72V17.72C546.195 17.72 548.371 16.9572 550.077 15.3728L549.397 14.64ZM550.437 21.36H549.437V66H550.437H551.437V21.36H550.437ZM550.437 66V65H536.757V66V67H550.437V66ZM536.757 66H537.757V21.36H536.757H535.757V66H536.757ZM536.757 21.36V22.36H550.437V21.36V20.36H536.757V21.36ZM574.031 6.8H575.031V5.8H574.031V6.8ZM574.031 66V67H575.031V66H574.031ZM560.351 66H559.351V67H560.351V66ZM560.351 6.8V5.8H559.351V6.8H560.351ZM574.031 6.8H573.031V66H574.031H575.031V6.8H574.031ZM574.031 66V65H560.351V66V67H574.031V66ZM560.351 66H561.351V6.8H560.351H559.351V66H560.351ZM560.351 6.8V7.8H574.031V6.8V5.8H560.351V6.8ZM591.704 64.64L592.106 63.7242L591.704 64.64ZM584.504 59.2L583.704 59.8L583.711 59.8088L584.504 59.2ZM581.544 51.36V50.36H580.468L580.547 51.4339L581.544 51.36ZM595.064 51.36L596.059 51.2571L595.966 50.36H595.064V51.36ZM597.224 55.12L597.824 54.32L597.224 55.12ZM605.864 55.6L606.441 56.417L606.45 56.4107L605.864 55.6ZM605.304 50.16L604.872 51.0615L604.887 51.0687L604.902 51.0753L605.304 50.16ZM598.824 48.08L599.067 47.1099L599.059 47.1079L599.052 47.1062L598.824 48.08ZM590.824 45.76L590.453 46.6885L590.463 46.6925L590.473 46.6963L590.824 45.76ZM585.304 41.84L584.544 42.4889L584.548 42.4946L584.553 42.5001L585.304 41.84ZM585.064 27.6L584.236 27.0405L584.232 27.0453L585.064 27.6ZM591.304 22.56L590.9 21.6454L590.893 21.6484L591.304 22.56ZM614.344 24.88L613.689 25.6357L613.696 25.641L614.344 24.88ZM619.944 35.92V36.92H621.055L620.939 35.8159L619.944 35.92ZM607.304 35.92L606.314 36.0566L606.433 36.92H607.304V35.92ZM605.224 32.24L604.595 33.0172L604.604 33.0244L604.613 33.0313L605.224 32.24ZM597.064 31.84L597.631 32.664L597.648 32.6524L597.664 32.64L597.064 31.84ZM597.784 37.2L597.352 38.1015L597.358 38.1048L597.365 38.108L597.784 37.2ZM604.184 39.12L604.434 38.1517L604.418 38.1475L604.401 38.1438L604.184 39.12ZM612.264 41.68L611.885 42.6052L611.895 42.6094L611.905 42.6133L612.264 41.68ZM617.704 45.68L616.934 46.318L616.944 46.33L616.955 46.3416L617.704 45.68ZM620.184 53.04H621.184V53.0314L621.184 53.0228L620.184 53.04ZM617.944 60.08L617.132 59.4968L617.129 59.5008L617.944 60.08ZM611.624 64.88L611.235 63.959L611.228 63.9618L611.624 64.88ZM602.104 66.64V65.64C598.326 65.64 594.999 64.9932 592.106 63.7242L591.704 64.64L591.303 65.5558C594.489 66.9534 598.096 67.64 602.104 67.64V66.64ZM591.704 64.64L592.106 63.7242C589.197 62.4484 586.941 60.7321 585.298 58.5912L584.504 59.2L583.711 59.8088C585.588 62.2545 588.132 64.1649 591.303 65.5558L591.704 64.64ZM584.504 59.2L585.304 58.6C583.657 56.4037 582.741 53.9724 582.542 51.2861L581.544 51.36L580.547 51.4339C580.775 54.5077 581.832 57.303 583.704 59.8L584.504 59.2ZM581.544 51.36V52.36H595.064V51.36V50.36H581.544V51.36ZM595.064 51.36L594.07 51.4629C594.259 53.2958 595.129 54.7983 596.624 55.92L597.224 55.12L597.824 54.32C596.76 53.5217 596.189 52.5176 596.059 51.2571L595.064 51.36ZM597.224 55.12L596.624 55.92C598.105 57.0306 599.899 57.56 601.944 57.56V56.56V55.56C600.257 55.56 598.904 55.1294 597.824 54.32L597.224 55.12ZM601.944 56.56V57.56C603.754 57.56 605.297 57.2245 606.441 56.417L605.864 55.6L605.288 54.783C604.618 55.2555 603.548 55.56 601.944 55.56V56.56ZM605.864 55.6L606.45 56.4107C607.637 55.5534 608.304 54.3867 608.304 52.96H607.304H606.304C606.304 53.6666 606.012 54.26 605.279 54.7893L605.864 55.6ZM607.304 52.96H608.304C608.304 52.1368 608.086 51.3745 607.618 50.7188C607.156 50.0713 606.495 49.5911 605.707 49.2447L605.304 50.16L604.902 51.0753C605.448 51.3155 605.786 51.5954 605.991 51.8812C606.189 52.1588 606.304 52.5032 606.304 52.96H607.304ZM605.304 50.16L605.737 49.2585C604.307 48.5722 602.065 47.8593 599.067 47.1099L598.824 48.08L598.582 49.0501C601.557 49.794 603.635 50.4678 604.872 51.0615L605.304 50.16ZM598.824 48.08L599.052 47.1062C595.877 46.3654 593.255 45.6035 591.175 44.8237L590.824 45.76L590.473 46.6963C592.66 47.5165 595.372 48.3012 598.597 49.0538L598.824 48.08ZM590.824 45.76L591.196 44.8315C589.211 44.0377 587.501 42.8242 586.056 41.1799L585.304 41.84L584.553 42.5001C586.201 44.3757 588.171 45.7756 590.453 46.6885L590.824 45.76ZM585.304 41.84L586.065 41.1911C584.712 39.604 583.984 37.4293 583.984 34.56H582.984H581.984C581.984 37.7707 582.804 40.4493 584.544 42.4889L585.304 41.84ZM582.984 34.56H583.984C583.984 32.1924 584.622 30.0663 585.896 28.1547L585.064 27.6L584.232 27.0453C582.733 29.2937 581.984 31.8076 581.984 34.56H582.984ZM585.064 27.6L585.893 28.1595C587.214 26.2032 589.137 24.6343 591.715 23.4716L591.304 22.56L590.893 21.6484C588.031 22.939 585.795 24.7301 584.236 27.0405L585.064 27.6ZM591.304 22.56L591.709 23.4745C594.327 22.3164 597.463 21.72 601.144 21.72V20.72V19.72C597.252 19.72 593.828 20.3503 590.9 21.6455L591.304 22.56ZM601.144 20.72V21.72C606.583 21.72 610.723 23.0648 613.689 25.6357L614.344 24.88L614.999 24.1243C611.566 21.1485 606.906 19.72 601.144 19.72V20.72ZM614.344 24.88L613.696 25.641C616.737 28.234 618.494 31.6706 618.95 36.0241L619.944 35.92L620.939 35.8159C620.435 30.996 618.458 27.0726 614.993 24.119L614.344 24.88ZM619.944 35.92V34.92H607.304V35.92V36.92H619.944V35.92ZM607.304 35.92L608.295 35.7834C608.048 33.9925 607.228 32.5247 605.836 31.4487L605.224 32.24L604.613 33.0313C605.567 33.7687 606.134 34.7542 606.314 36.0566L607.304 35.92ZM605.224 32.24L605.854 31.4628C604.509 30.3741 602.772 29.88 600.744 29.88V30.88V31.88C602.451 31.88 603.7 32.2926 604.595 33.0172L605.224 32.24ZM600.744 30.88V29.88C599.031 29.88 597.558 30.2197 596.464 31.04L597.064 31.84L597.664 32.64C598.277 32.1803 599.258 31.88 600.744 31.88V30.88ZM597.064 31.84L596.498 31.016C595.364 31.7958 594.784 32.9359 594.784 34.32H595.784H596.784C596.784 33.5708 597.059 33.0576 597.631 32.664L597.064 31.84ZM595.784 34.32H594.784C594.784 35.1436 595.002 35.907 595.463 36.5704C595.918 37.2255 596.57 37.7262 597.352 38.1015L597.784 37.2L598.217 36.2985C597.666 36.0338 597.317 35.7345 597.106 35.4296C596.9 35.133 596.784 34.7764 596.784 34.32H595.784ZM597.784 37.2L597.365 38.108C598.852 38.7939 601.07 39.4522 603.967 40.0962L604.184 39.12L604.401 38.1438C601.539 37.5078 599.49 36.886 598.203 36.292L597.784 37.2ZM604.184 39.12L603.935 40.0883C607.217 40.9354 609.863 41.7756 611.885 42.6052L612.264 41.68L612.644 40.7548C610.506 39.8778 607.765 39.0113 604.434 38.1517L604.184 39.12ZM612.264 41.68L611.905 42.6133C613.811 43.3465 615.487 44.5715 616.934 46.318L617.704 45.68L618.474 45.042C616.828 43.0552 614.877 41.6135 612.623 40.7467L612.264 41.68ZM617.704 45.68L616.955 46.3416C618.357 47.9316 619.134 50.1336 619.185 53.0572L620.184 53.04L621.184 53.0228C621.128 49.7597 620.251 47.0551 618.454 45.0184L617.704 45.68ZM620.184 53.04H619.184C619.184 55.4487 618.501 57.5905 617.132 59.4968L617.944 60.08L618.757 60.6632C620.375 58.4095 621.184 55.858 621.184 53.04H620.184ZM617.944 60.08L617.129 59.5008C615.817 61.3471 613.873 62.8426 611.235 63.959L611.624 64.88L612.014 65.801C614.922 64.5707 617.191 62.8662 618.76 60.6592L617.944 60.08ZM611.624 64.88L611.228 63.9618C608.658 65.0705 605.625 65.64 602.104 65.64V66.64V67.64C605.838 67.64 609.151 67.0362 612.02 65.7982L611.624 64.88Z" fill="black" fill-opacity="0.05" mask="url(#path-1-outside-1_1_526)"/>
</svg>
